# xmcd
#
# Track frame offsets:
#	150
#	24594
#	39083
#	59554
#	76160
#	110989
#	129658
#	150417
#	174171
#	194320
#	214095
#
# Disc length: 2987 seconds
#
# Revision: 1
# Processed by: cddbd v1.5.1PL2 Copyright (c) Steve Scherf et al.
# Submitted via: dBpowerAMP V4.0
#
DISCID=8b0ba90b
DTITLE=Brock Zeman - Cold Winter Comes Back
DYEAR=2001
DGENRE=Country
TTITLE0=Dust
TTITLE1=Missippi River
TTITLE2=Ridin' on the RIms
TTITLE3=Sink Like AStone
TTITLE4=Billy and Me
TTITLE5=Jefferson County
TTITLE6=William P. Rambler
TTITLE7=Dragged through the Dirt
TTITLE8=Gastown
TTITLE9=Bonnie n' Clyde
TTITLE10=The Carleton Place Song
EXTD=
EXTT0=
EXTT1=
EXTT2=
EXTT3=
EXTT4=
EXTT5=
EXTT6=
EXTT7=
EXTT8=
EXTT9=
EXTT10=
PLAYORDER=
